<svg xmlns="http://www.w3.org/2000/svg">
      <symbol viewBox="0 0 36 36" id="icon-copyright">
        <path d="M18.1506 2.25H18.0502L4.5 3.58944V27.221L18.0502 34.875L31.5 27.221V3.58944L18.1506 2.25ZM29.5929 13.8266L18.0502 7.32075V7.22507H17.9498L17.8494 7.1294V7.22507L6.40706 13.8266V5.21591L17.9498 4.06782L29.5929 5.21591V13.8266ZM17.9498 8.75587L29.4926 15.1661L24.9758 17.6536L17.8494 13.6353V14.9747L23.7714 18.3233L22.868 18.8017L17.8494 15.9315V17.2709L21.6636 19.4714L20.8606 19.9498L17.8494 18.2276V19.5671L19.7565 20.6195L17.9498 21.6719L6.50743 15.2617L17.9498 8.75587ZM6.40706 16.6968L17.8494 23.2027V24.1595L9.92007 19.6628V21.0022L17.9498 25.5946V26.647L9.92007 22.1503V23.4897L17.9498 28.0821L26.0799 23.3941V18.419L29.4926 16.5055V26.0729L17.9498 32.6745L6.40706 26.1686V16.6968Z"/>
      </symbol>
      <symbol viewBox="0 0 24 24" id="icon-vk" fill="currentColor">
        <g clip-path="url(#clip0_45387_182)">
        <path fill-rule="evenodd" clip-rule="evenodd" d="M23.45 5.948C23.616 5.402 23.45 5 22.655 5H20.03C19.362 5 19.054 5.347 18.887 5.73C18.887 5.73 17.552 8.926 15.661 11.002C15.049 11.604 14.771 11.795 14.437 11.795C14.27 11.795 14.019 11.604 14.019 11.057V5.948C14.019 5.292 13.835 5 13.279 5H9.151C8.734 5 8.483 5.304 8.483 5.593C8.483 6.214 9.429 6.358 9.526 8.106V11.904C9.526 12.737 9.373 12.888 9.039 12.888C8.149 12.888 5.984 9.677 4.699 6.003C4.45 5.288 4.198 5 3.527 5H0.9C0.15 5 0 5.347 0 5.73C0 6.412 0.89 9.8 4.145 14.281C6.315 17.341 9.37 19 12.153 19C13.822 19 14.028 18.632 14.028 17.997V15.684C14.028 14.947 14.186 14.8 14.715 14.8C15.105 14.8 15.772 14.992 17.33 16.467C19.11 18.216 19.403 19 20.405 19H23.03C23.78 19 24.156 18.632 23.94 17.904C23.702 17.18 22.852 16.129 21.725 14.882C21.113 14.172 20.195 13.407 19.916 13.024C19.527 12.533 19.638 12.314 19.916 11.877C19.916 11.877 23.116 7.451 23.449 5.948H23.45Z"/>
        </g>
        <defs>
        <clipPath id="clip0_45387_182">
        <rect width="24" height="24"/>
        </clipPath>
        </defs>
      </symbol>
    </svg>
