<svg width="67" height="75" viewBox="0 0 67 75" fill="none" xmlns="http://www.w3.org/2000/svg">
<path d="M63.5497 22.1167H63.4441H37.792C52.1487 15.3189 53.3099 11.0202 52.7821 8.62098C51.6209 4.72221 46.8705 1.72316 42.4368 3.32266C36.6308 5.42199 35.0473 13.6194 33.4639 19.5175C31.4581 13.5194 29.558 5.92183 25.0187 2.02307C23.752 0.923414 21.8518 -0.176239 19.0016 0.0236982C14.779 0.423572 8.76183 5.32202 11.2954 10.8203C13.6178 16.1186 21.324 19.5175 26.4966 22.2167H2.9558C1.26677 22.2167 0 23.5163 0 25.0158V36.2123C0 37.8118 1.37234 39.0114 2.9558 39.0114H3.27249V75H63.4441V39.0114H63.5497C65.2387 39.0114 66.5055 37.7118 66.5055 36.2123V25.0158C66.5055 23.4163 65.1331 22.1167 63.5497 22.1167ZM44.1259 5.82187C46.3427 5.52196 49.2985 7.12146 49.6152 9.02085C50.0374 11.72 46.1316 14.2192 44.337 15.3189C41.6979 17.0183 39.1643 17.918 36.7364 19.3176C37.5809 15.6188 39.3755 6.42168 44.1259 5.82187ZM20.2683 15.6188C17.9459 14.1192 13.5122 11.2202 13.6178 7.9212C13.7234 4.32234 19.6349 1.42326 22.8019 4.1224C26.8133 7.42136 28.7135 15.1189 30.1914 20.5172C26.8133 18.9177 23.6464 17.7181 20.2683 15.6188ZM26.4966 72.0009H6.33385V39.0114H26.4966V72.0009ZM26.4966 36.0123H3.16693V25.1158H26.4966V36.0123ZM37.053 72.0009H29.558V25.1158H37.053V72.0009ZM60.2772 72.0009H40.22V39.0114H60.3827V72.0009H60.2772ZM63.3385 36.0123H40.22V25.1158H63.3385V36.0123Z" fill="#81B3D2"/>
</svg>
